<svg width="257" height="92" viewBox="0 0 257 92" fill="none" xmlns="http://www.w3.org/2000/svg">
<g clip-path="url(#clip0_198_137)">
<path d="M25.0073 75.7563H255.076" stroke="#020202" stroke-width="0.559913"/>
<path d="M25.0073 78.5111V75.7563" stroke="#020202" stroke-width="0.559913"/>
<path d="M25.0077 84.578C24.6482 84.578 24.342 84.4802 24.0891 84.2846C23.8361 84.0873 23.6429 83.8018 23.5093 83.428C23.3757 83.0526 23.3088 82.5993 23.3088 82.068C23.3088 81.5399 23.3757 81.0889 23.5093 80.7151C23.6445 80.3397 23.8385 80.0534 24.0915 79.8562C24.346 79.6573 24.6514 79.5579 25.0077 79.5579C25.364 79.5579 25.6686 79.6573 25.9215 79.8562C26.176 80.0534 26.3701 80.3397 26.5037 80.7151C26.6389 81.0889 26.7065 81.5399 26.7065 82.068C26.7065 82.5993 26.6397 83.0526 26.5061 83.428C26.3725 83.8018 26.1792 84.0873 25.9263 84.2846C25.6734 84.4802 25.3672 84.578 25.0077 84.578ZM25.0077 84.0531C25.364 84.0531 25.6408 83.8813 25.838 83.5377C26.0352 83.1942 26.1339 82.7042 26.1339 82.068C26.1339 81.6449 26.0885 81.2846 25.9979 80.9871C25.9088 80.6897 25.7799 80.463 25.6113 80.3071C25.4443 80.1512 25.2431 80.0733 25.0077 80.0733C24.6545 80.0733 24.3786 80.2475 24.1797 80.5958C23.9809 80.9426 23.8815 81.4333 23.8815 82.068C23.8815 82.4911 23.926 82.8506 24.0151 83.1464C24.1042 83.4423 24.2322 83.6674 24.3992 83.8217C24.5679 83.976 24.7707 84.0531 25.0077 84.0531Z" fill="black"/>
<path d="M53.7666 78.5111V75.7563" stroke="#020202" stroke-width="0.559913"/>
<path d="M54.4286 79.6247V84.5112H53.8369V80.2451H53.8083L52.6153 81.0372V80.436L53.8369 79.6247H54.4286Z" fill="black"/>
<path d="M82.5249 78.5111V75.7563" stroke="#020202" stroke-width="0.559913"/>
<path d="M80.997 84.5112V84.0818L82.61 82.3161C82.7992 82.1093 82.9551 81.9296 83.0776 81.7769C83.2001 81.6226 83.2908 81.4778 83.3496 81.3426C83.4101 81.2058 83.4403 81.0627 83.4403 80.9132C83.4403 80.7414 83.3989 80.5926 83.3162 80.467C83.2351 80.3413 83.1237 80.2443 82.9822 80.1759C82.8406 80.1075 82.6815 80.0733 82.505 80.0733C82.3173 80.0733 82.1534 80.1123 82.0135 80.1902C81.8751 80.2666 81.7677 80.3739 81.6913 80.5123C81.6166 80.6507 81.5792 80.8129 81.5792 80.999H81.0161C81.0161 80.7127 81.0821 80.4614 81.2141 80.2451C81.3462 80.0287 81.5259 79.8601 81.7534 79.7392C81.9824 79.6184 82.2393 79.5579 82.5241 79.5579C82.8104 79.5579 83.0641 79.6184 83.2852 79.7392C83.5063 79.8601 83.6797 80.0232 83.8053 80.2284C83.931 80.4336 83.9938 80.6618 83.9938 80.9132C83.9938 81.0929 83.9612 81.2687 83.896 81.4405C83.8324 81.6107 83.721 81.8007 83.562 82.0107C83.4045 82.2191 83.1858 82.4736 82.9058 82.7742L81.8083 83.9481V83.9863H84.0797V84.5112H80.997Z" fill="black"/>
<path d="M111.284 78.5111V75.7563" stroke="#020202" stroke-width="0.559913"/>
<path d="M111.302 84.578C110.987 84.578 110.706 84.524 110.46 84.4158C110.215 84.3076 110.02 84.1573 109.875 83.9648C109.732 83.7708 109.654 83.5457 109.641 83.2896H110.243C110.255 83.4471 110.309 83.5831 110.405 83.6976C110.5 83.8105 110.625 83.898 110.779 83.9601C110.934 84.0221 111.105 84.0531 111.292 84.0531C111.502 84.0531 111.688 84.0165 111.851 83.9434C112.013 83.8702 112.14 83.7684 112.232 83.638C112.325 83.5075 112.371 83.3564 112.371 83.1846C112.371 83.0049 112.326 82.8466 112.237 82.7098C112.148 82.5714 112.018 82.4633 111.846 82.3853C111.674 82.3074 111.464 82.2684 111.216 82.2684H110.825V81.7435H111.216C111.41 81.7435 111.58 81.7085 111.727 81.6385C111.875 81.5685 111.99 81.4699 112.073 81.3426C112.157 81.2154 112.199 81.0659 112.199 80.8941C112.199 80.7286 112.162 80.5847 112.089 80.4622C112.016 80.3397 111.913 80.2443 111.779 80.1759C111.647 80.1075 111.491 80.0733 111.311 80.0733C111.143 80.0733 110.984 80.1043 110.834 80.1663C110.686 80.2268 110.565 80.3151 110.472 80.4312C110.378 80.5457 110.327 80.6841 110.319 80.8463H109.746C109.756 80.5902 109.833 80.366 109.978 80.1735C110.122 79.9794 110.312 79.8283 110.546 79.7202C110.781 79.612 111.039 79.5579 111.321 79.5579C111.623 79.5579 111.883 79.6192 112.099 79.7416C112.315 79.8625 112.481 80.0224 112.598 80.2212C112.714 80.42 112.772 80.6348 112.772 80.8654C112.772 81.1406 112.699 81.3752 112.555 81.5693C112.411 81.7634 112.217 81.8978 111.97 81.9725V82.0107C112.279 82.0616 112.52 82.1928 112.693 82.4044C112.866 82.6144 112.953 82.8744 112.953 83.1846C112.953 83.4503 112.881 83.6889 112.736 83.9004C112.593 84.1104 112.397 84.2758 112.149 84.3967C111.901 84.5176 111.618 84.578 111.302 84.578Z" fill="black"/>
<path d="M140.042 78.5111V75.7563" stroke="#020202" stroke-width="0.559913"/>
<path d="M138.278 83.5091V83.0224L140.425 79.6247H140.778V80.3787H140.54L138.917 82.946V82.9842H141.809V83.5091H138.278ZM140.578 84.5112V83.3612V83.1345V79.6247H141.141V84.5112H140.578Z" fill="black"/>
<path d="M168.801 78.5111V75.7563" stroke="#020202" stroke-width="0.559913"/>
<path d="M168.79 84.578C168.51 84.578 168.258 84.5224 168.033 84.411C167.809 84.2997 167.629 84.147 167.494 83.9529C167.359 83.7588 167.285 83.5377 167.272 83.2896H167.845C167.867 83.5107 167.967 83.6936 168.145 83.8384C168.325 83.9815 168.54 84.0531 168.79 84.0531C168.99 84.0531 169.168 84.0062 169.324 83.9123C169.482 83.8185 169.605 83.6897 169.694 83.5258C169.785 83.3604 169.83 83.1735 169.83 82.9651C169.83 82.752 169.783 82.5619 169.689 82.3949C169.597 82.2262 169.47 82.0934 169.307 81.9964C169.145 81.8994 168.96 81.8501 168.751 81.8485C168.602 81.8469 168.448 81.8699 168.291 81.9177C168.133 81.9638 168.004 82.0234 167.902 82.0966L167.348 82.0298L167.644 79.6247H170.183V80.1496H168.141L167.969 81.5908H167.997C168.098 81.5112 168.223 81.4452 168.374 81.3927C168.526 81.3402 168.683 81.314 168.847 81.314C169.146 81.314 169.412 81.3856 169.646 81.5287C169.882 81.6703 170.066 81.8644 170.2 82.1109C170.335 82.3575 170.403 82.639 170.403 82.9556C170.403 83.2673 170.333 83.5457 170.193 83.7907C170.054 84.034 169.863 84.2265 169.62 84.3681C169.377 84.508 169.1 84.578 168.79 84.578Z" fill="black"/>
<path d="M197.559 78.5111V75.7563" stroke="#020202" stroke-width="0.559913"/>
<path d="M197.591 84.578C197.391 84.5749 197.19 84.5367 196.99 84.4635C196.79 84.3903 196.607 84.2671 196.441 84.0937C196.276 83.9187 196.143 83.6825 196.043 83.385C195.943 83.086 195.893 82.7106 195.893 82.2589C195.893 81.8262 195.933 81.4428 196.014 81.1088C196.095 80.7732 196.213 80.4908 196.367 80.2618C196.522 80.0311 196.708 79.8562 196.926 79.7369C197.145 79.6176 197.393 79.5579 197.668 79.5579C197.941 79.5579 198.185 79.6128 198.398 79.7225C198.613 79.8307 198.788 79.9818 198.923 80.1759C199.058 80.3699 199.145 80.5934 199.185 80.8463H198.603C198.549 80.6268 198.444 80.4447 198.288 80.3C198.132 80.1552 197.925 80.0828 197.668 80.0828C197.289 80.0828 196.991 80.2475 196.773 80.5767C196.557 80.906 196.448 81.3681 196.446 81.963H196.484C196.573 81.8278 196.679 81.7125 196.802 81.617C196.926 81.52 197.062 81.4452 197.212 81.3927C197.361 81.3402 197.52 81.314 197.687 81.314C197.967 81.314 198.223 81.384 198.455 81.524C198.687 81.6624 198.873 81.854 199.013 82.099C199.153 82.3424 199.223 82.6215 199.223 82.9365C199.223 83.2387 199.156 83.5155 199.021 83.7668C198.885 84.0165 198.695 84.2154 198.45 84.3633C198.207 84.5096 197.921 84.5812 197.591 84.578ZM197.591 84.0531C197.792 84.0531 197.972 84.003 198.131 83.9028C198.291 83.8026 198.418 83.6682 198.51 83.4996C198.604 83.331 198.651 83.1433 198.651 82.9365C198.651 82.7345 198.605 82.5507 198.515 82.3853C198.426 82.2183 198.302 82.0855 198.145 81.9869C197.989 81.8882 197.811 81.8389 197.61 81.8389C197.459 81.8389 197.319 81.8691 197.188 81.9296C197.058 81.9884 196.943 82.0696 196.845 82.173C196.747 82.2764 196.671 82.3949 196.615 82.5285C196.56 82.6605 196.532 82.7997 196.532 82.946C196.532 83.1401 196.577 83.3214 196.668 83.49C196.76 83.6586 196.886 83.7946 197.045 83.898C197.206 84.0014 197.388 84.0531 197.591 84.0531Z" fill="black"/>
<path d="M226.318 78.5111V75.7563" stroke="#020202" stroke-width="0.559913"/>
<path d="M225.249 84.5112L227.435 80.1878V80.1496H224.915V79.6247H228.046V80.1783L225.87 84.5112H225.249Z" fill="black"/>
<path d="M255.076 78.5111V75.7563" stroke="#020202" stroke-width="0.559913"/>
<path d="M255.077 84.578C254.749 84.578 254.46 84.52 254.208 84.4039C253.959 84.2862 253.764 84.1247 253.624 83.9195C253.484 83.7127 253.415 83.4773 253.416 83.2133C253.415 83.0065 253.455 82.8156 253.538 82.6406C253.621 82.464 253.734 82.3169 253.877 82.1992C254.022 82.0799 254.183 82.0043 254.361 81.9725V81.9439C254.127 81.8835 253.941 81.7522 253.803 81.5502C253.664 81.3466 253.596 81.1152 253.598 80.8559C253.596 80.6077 253.659 80.3858 253.786 80.1902C253.913 79.9945 254.088 79.8403 254.311 79.7273C254.535 79.6144 254.791 79.5579 255.077 79.5579C255.36 79.5579 255.613 79.6144 255.836 79.7273C256.058 79.8403 256.233 79.9945 256.361 80.1902C256.489 80.3858 256.555 80.6077 256.556 80.8559C256.555 81.1152 256.484 81.3466 256.344 81.5502C256.206 81.7522 256.022 81.8835 255.793 81.9439V81.9725C255.969 82.0043 256.128 82.0799 256.27 82.1992C256.411 82.3169 256.524 82.464 256.609 82.6406C256.693 82.8156 256.736 83.0065 256.738 83.2133C256.736 83.4773 256.664 83.7127 256.523 83.9195C256.383 84.1247 256.188 84.2862 255.938 84.4039C255.69 84.52 255.403 84.578 255.077 84.578ZM255.077 84.0531C255.298 84.0531 255.489 84.0173 255.65 83.9458C255.81 83.8742 255.934 83.7732 256.022 83.6427C256.109 83.5123 256.154 83.3596 256.155 83.1846C256.154 83.0001 256.106 82.8371 256.012 82.6955C255.918 82.5539 255.79 82.4426 255.628 82.3615C255.467 82.2803 255.284 82.2398 255.077 82.2398C254.869 82.2398 254.682 82.2803 254.519 82.3615C254.356 82.4426 254.228 82.5539 254.134 82.6955C254.042 82.8371 253.997 83.0001 253.998 83.1846C253.997 83.3596 254.039 83.5123 254.125 83.6427C254.212 83.7732 254.337 83.8742 254.5 83.9458C254.662 84.0173 254.854 84.0531 255.077 84.0531ZM255.077 81.7339C255.252 81.7339 255.407 81.6989 255.542 81.629C255.679 81.559 255.786 81.4611 255.864 81.3355C255.942 81.2098 255.982 81.0627 255.984 80.8941C255.982 80.7286 255.943 80.5847 255.867 80.4622C255.79 80.3381 255.685 80.2427 255.549 80.1759C255.414 80.1075 255.257 80.0733 255.077 80.0733C254.894 80.0733 254.734 80.1075 254.597 80.1759C254.461 80.2427 254.355 80.3381 254.28 80.4622C254.205 80.5847 254.169 80.7286 254.17 80.8941C254.169 81.0627 254.206 81.2098 254.282 81.3355C254.36 81.4611 254.468 81.559 254.604 81.629C254.741 81.6989 254.899 81.7339 255.077 81.7339Z" fill="black"/>
<path d="M25.0073 2.29565V75.7562" stroke="white" stroke-width="0.559913"/>
<path d="M22.6987 75.7561H25.0071" stroke="white" stroke-width="0.559913"/>
<path d="M18.6754 76.3134C18.3159 76.3134 18.0097 76.2156 17.7568 76.0199C17.5039 75.8227 17.3106 75.5371 17.177 75.1633C17.0434 74.7879 16.9766 74.3346 16.9766 73.8033C16.9766 73.2752 17.0434 72.8243 17.177 72.4505C17.3122 72.0751 17.5063 71.7888 17.7592 71.5915C18.0137 71.3927 18.3191 71.2933 18.6754 71.2933C19.0317 71.2933 19.3364 71.3927 19.5893 71.5915C19.8438 71.7888 20.0378 72.0751 20.1715 72.4505C20.3067 72.8243 20.3743 73.2752 20.3743 73.8033C20.3743 74.3346 20.3075 74.7879 20.1738 75.1633C20.0402 75.5371 19.847 75.8227 19.594 76.0199C19.3411 76.2156 19.0349 76.3134 18.6754 76.3134ZM18.6754 75.7885C19.0317 75.7885 19.3085 75.6167 19.5058 75.2731C19.703 74.9295 19.8016 74.4396 19.8016 73.8033C19.8016 73.3802 19.7563 73.0199 19.6656 72.7225C19.5765 72.425 19.4477 72.1983 19.2791 72.0425C19.1121 71.8866 18.9109 71.8086 18.6754 71.8086C18.3223 71.8086 18.0463 71.9828 17.8475 72.3312C17.6487 72.6779 17.5492 73.1687 17.5492 73.8033C17.5492 74.2264 17.5938 74.5859 17.6829 74.8818C17.7719 75.1777 17.9 75.4027 18.067 75.557C18.2356 75.7113 18.4384 75.7885 18.6754 75.7885Z" fill="black"/>
<path d="M22.6987 57.3911H25.0071" stroke="white" stroke-width="0.559913"/>
<path d="M13.1255 57.8816V57.4521L14.7384 55.6865C14.9277 55.4797 15.0836 55.2999 15.2061 55.1472C15.3285 54.993 15.4192 54.8482 15.4781 54.713C15.5385 54.5762 15.5687 54.433 15.5687 54.2835C15.5687 54.1117 15.5274 53.963 15.4447 53.8373C15.3635 53.7117 15.2522 53.6146 15.1106 53.5462C14.969 53.4778 14.81 53.4436 14.6334 53.4436C14.4457 53.4436 14.2819 53.4826 14.1419 53.5606C14.0035 53.6369 13.8961 53.7443 13.8198 53.8827C13.745 54.0211 13.7077 54.1833 13.7077 54.3694H13.1446C13.1446 54.0831 13.2106 53.8318 13.3426 53.6154C13.4746 53.3991 13.6544 53.2305 13.8818 53.1096C14.1109 52.9887 14.3678 52.9283 14.6525 52.9283C14.9388 52.9283 15.1925 52.9887 15.4136 53.1096C15.6347 53.2305 15.8081 53.3935 15.9338 53.5987C16.0594 53.8039 16.1223 54.0322 16.1223 54.2835C16.1223 54.4633 16.0897 54.639 16.0245 54.8108C15.9608 54.981 15.8495 55.1711 15.6904 55.3811C15.5329 55.5894 15.3142 55.844 15.0343 56.1446L13.9367 57.3185V57.3567H16.2082V57.8816H13.1255ZM18.7206 57.9484C18.4407 57.9484 18.1885 57.8927 17.9643 57.7814C17.74 57.67 17.5602 57.5173 17.425 57.3233C17.2898 57.1292 17.2159 56.9081 17.2031 56.66H17.7758C17.798 56.8811 17.8983 57.064 18.0764 57.2087C18.2562 57.3519 18.4709 57.4235 18.7206 57.4235C18.921 57.4235 19.0992 57.3766 19.2551 57.2827C19.4126 57.1889 19.5358 57.06 19.6249 56.8962C19.7156 56.7307 19.7609 56.5438 19.7609 56.3355C19.7609 56.1223 19.714 55.9322 19.6201 55.7652C19.5279 55.5966 19.4006 55.4638 19.2384 55.3668C19.0761 55.2697 18.8908 55.2204 18.6824 55.2188C18.5329 55.2172 18.3794 55.2403 18.222 55.288C18.0645 55.3341 17.9348 55.3938 17.833 55.467L17.2795 55.4002L17.5753 52.9951H20.114V53.52H18.0716L17.8998 54.9611H17.9285C18.0287 54.8816 18.1543 54.8156 18.3055 54.7631C18.4566 54.7106 18.6141 54.6844 18.7779 54.6844C19.0769 54.6844 19.3434 54.7559 19.5772 54.8991C19.8126 55.0407 19.9971 55.2347 20.1307 55.4813C20.266 55.7278 20.3336 56.0094 20.3336 56.3259C20.3336 56.6377 20.2636 56.9161 20.1236 57.161C19.9852 57.4044 19.7943 57.5969 19.5509 57.7384C19.3076 57.8784 19.0308 57.9484 18.7206 57.9484ZM18.6759 65.9484C18.3164 65.9484 18.0102 65.8506 17.7573 65.6549C17.5044 65.4577 17.3111 65.1722 17.1775 64.7984C17.0439 64.423 16.9771 63.9696 16.9771 63.4383C16.9771 62.9102 17.0439 62.4593 17.1775 62.0855C17.3127 61.7101 17.5068 61.4238 17.7597 61.2265C18.0142 61.0277 18.3196 60.9283 18.6759 60.9283C19.0322 60.9283 19.3368 61.0277 19.5897 61.2265C19.8442 61.4238 20.0383 61.7101 20.1719 62.0855C20.3071 62.4593 20.3747 62.9102 20.3747 63.4383C20.3747 63.9696 20.3079 64.423 20.1743 64.7984C20.0407 65.1722 19.8474 65.4577 19.5945 65.6549C19.3416 65.8506 19.0354 65.9484 18.6759 65.9484ZM18.6759 65.4235C19.0322 65.4235 19.309 65.2517 19.5062 64.9081C19.7035 64.5645 19.8021 64.0746 19.8021 63.4383C19.8021 63.0152 19.7567 62.6549 19.6661 62.3575C19.577 62.06 19.4482 61.8334 19.2795 61.6775C19.1125 61.5216 18.9113 61.4436 18.6759 61.4436C18.3228 61.4436 18.0468 61.6178 17.8479 61.9662C17.6491 62.3129 17.5497 62.8037 17.5497 63.4383C17.5497 63.8615 17.5942 64.2209 17.6833 64.5168C17.7724 64.8127 17.9004 65.0377 18.0675 65.192C18.2361 65.3463 18.4389 65.4235 18.6759 65.4235Z" fill="black"/>
<path d="M22.6987 39.0259H25.0071" stroke="white" stroke-width="0.559913"/>
<path d="M14.5213 39.5832C14.2413 39.5832 13.9892 39.5275 13.7649 39.4161C13.5406 39.3048 13.3609 39.1521 13.2257 38.958C13.0905 38.764 13.0165 38.5429 13.0038 38.2947H13.5764C13.5987 38.5158 13.6989 38.6988 13.8771 38.8435C14.0568 38.9867 14.2715 39.0582 14.5213 39.0582C14.7217 39.0582 14.8999 39.0113 15.0557 38.9175C15.2132 38.8236 15.3365 38.6948 15.4256 38.5309C15.5162 38.3655 15.5616 38.1786 15.5616 37.9702C15.5616 37.7571 15.5146 37.567 15.4208 37.4C15.3285 37.2314 15.2013 37.0986 15.039 37.0015C14.8768 36.9045 14.6915 36.8552 14.4831 36.8536C14.3336 36.852 14.1801 36.8751 14.0226 36.9228C13.8651 36.9689 13.7355 37.0286 13.6337 37.1017L13.0801 37.0349L13.376 34.6298H15.9147V35.1548H13.8723L13.7005 36.5959H13.7291C13.8293 36.5164 13.955 36.4504 14.1061 36.3979C14.2572 36.3454 14.4147 36.3191 14.5785 36.3191C14.8776 36.3191 15.144 36.3907 15.3778 36.5339C15.6133 36.6754 15.7978 36.8695 15.9314 37.116C16.0666 37.3626 16.1342 37.6441 16.1342 37.9607C16.1342 38.2725 16.0642 38.5508 15.9242 38.7958C15.7859 39.0392 15.595 39.2316 15.3516 39.3732C15.1082 39.5132 14.8315 39.5832 14.5213 39.5832ZM18.6759 39.5832C18.3164 39.5832 18.0102 39.4853 17.7573 39.2897C17.5044 39.0924 17.3111 38.8069 17.1775 38.4331C17.0439 38.0577 16.9771 37.6044 16.9771 37.0731C16.9771 36.545 17.0439 36.094 17.1775 35.7202C17.3127 35.3448 17.5068 35.0585 17.7597 34.8613C18.0142 34.6625 18.3196 34.563 18.6759 34.563C19.0322 34.563 19.3368 34.6625 19.5897 34.8613C19.8442 35.0585 20.0383 35.3448 20.1719 35.7202C20.3071 36.094 20.3747 36.545 20.3747 37.0731C20.3747 37.6044 20.3079 38.0577 20.1743 38.4331C20.0407 38.8069 19.8474 39.0924 19.5945 39.2897C19.3416 39.4853 19.0354 39.5832 18.6759 39.5832ZM18.6759 39.0582C19.0322 39.0582 19.309 38.8865 19.5062 38.5429C19.7035 38.1993 19.8021 37.7094 19.8021 37.0731C19.8021 36.65 19.7567 36.2897 19.6661 35.9922C19.577 35.6948 19.4482 35.4681 19.2795 35.3122C19.1125 35.1564 18.9113 35.0784 18.6759 35.0784C18.3228 35.0784 18.0468 35.2526 17.8479 35.6009C17.6491 35.9477 17.5497 36.4384 17.5497 37.0731C17.5497 37.4962 17.5942 37.8557 17.6833 38.1516C17.7724 38.4474 17.9004 38.6725 18.0675 38.8268C18.2361 38.9811 18.4389 39.0582 18.6759 39.0582ZM18.6759 47.5832C18.3164 47.5832 18.0102 47.4853 17.7573 47.2897C17.5044 47.0924 17.3111 46.8069 17.1775 46.4331C17.0439 46.0577 16.9771 45.6044 16.9771 45.0731C16.9771 44.545 17.0439 44.094 17.1775 43.7202C17.3127 43.3448 17.5068 43.0585 17.7597 42.8613C18.0142 42.6625 18.3196 42.563 18.6759 42.563C19.0322 42.563 19.3368 42.6625 19.5897 42.8613C19.8442 43.0585 20.0383 43.3448 20.1719 43.7202C20.3071 44.094 20.3747 44.545 20.3747 45.0731C20.3747 45.6044 20.3079 46.0577 20.1743 46.4331C20.0407 46.8069 19.8474 47.0924 19.5945 47.2897C19.3416 47.4853 19.0354 47.5832 18.6759 47.5832ZM18.6759 47.0582C19.0322 47.0582 19.309 46.8865 19.5062 46.5429C19.7035 46.1993 19.8021 45.7094 19.8021 45.0731C19.8021 44.65 19.7567 44.2897 19.6661 43.9922C19.577 43.6948 19.4482 43.4681 19.2795 43.3122C19.1125 43.1564 18.9113 43.0784 18.6759 43.0784C18.3228 43.0784 18.0468 43.2526 17.8479 43.6009C17.6491 43.9477 17.5497 44.4384 17.5497 45.0731C17.5497 45.4962 17.5942 45.8557 17.6833 46.1516C17.7724 46.4474 17.9004 46.6725 18.0675 46.8268C18.2361 46.9811 18.4389 47.0582 18.6759 47.0582Z" fill="black"/>
<path d="M22.6992 20.6606H25.0076" stroke="white" stroke-width="0.559913"/>
<path d="M13.5735 21.1511L15.759 16.8277V16.7895H13.2394V16.2646H16.3699V16.8182L14.1938 21.1511H13.5735ZM18.7207 21.2179C18.4407 21.2179 18.1886 21.1623 17.9643 21.0509C17.74 20.9396 17.5603 20.7869 17.4251 20.5928C17.2899 20.3987 17.2159 20.1776 17.2032 19.9295H17.7758C17.7981 20.1506 17.8983 20.3335 18.0764 20.4783C18.2562 20.6214 18.4709 20.693 18.7207 20.693C18.9211 20.693 19.0992 20.6461 19.2551 20.5522C19.4126 20.4584 19.5359 20.3295 19.625 20.1657C19.7156 20.0003 19.761 19.8134 19.761 19.605C19.761 19.3919 19.714 19.2018 19.6202 19.0347C19.5279 18.8661 19.4007 18.7333 19.2384 18.6363C19.0762 18.5393 18.8909 18.4899 18.6825 18.4884C18.533 18.4868 18.3795 18.5098 18.222 18.5575C18.0645 18.6037 17.9349 18.6633 17.8331 18.7365L17.2795 18.6697L17.5754 16.2646H20.1141V16.7895H18.0717L17.8999 18.2307H17.9285C18.0287 18.1511 18.1544 18.0851 18.3055 18.0326C18.4566 17.9801 18.6141 17.9539 18.7779 17.9539C19.077 17.9539 19.3434 18.0255 19.5772 18.1686C19.8126 18.3102 19.9972 18.5043 20.1308 18.7508C20.266 18.9974 20.3336 19.2789 20.3336 19.5955C20.3336 19.9072 20.2636 20.1856 20.1236 20.4306C19.9852 20.6739 19.7944 20.8664 19.551 21.008C19.3076 21.1479 19.0308 21.2179 18.7207 21.2179ZM18.6759 29.2179C18.3164 29.2179 18.0102 29.1201 17.7573 28.9245C17.5044 28.7272 17.3111 28.4417 17.1775 28.0679C17.0439 27.6925 16.9771 27.2391 16.9771 26.7079C16.9771 26.1798 17.0439 25.7288 17.1775 25.355C17.3127 24.9796 17.5068 24.6933 17.7597 24.4961C18.0142 24.2972 18.3196 24.1978 18.6759 24.1978C19.0322 24.1978 19.3368 24.2972 19.5898 24.4961C19.8443 24.6933 20.0383 24.9796 20.1719 25.355C20.3071 25.7288 20.3747 26.1798 20.3747 26.7079C20.3747 27.2391 20.3079 27.6925 20.1743 28.0679C20.0407 28.4417 19.8474 28.7272 19.5945 28.9245C19.3416 29.1201 19.0354 29.2179 18.6759 29.2179ZM18.6759 28.693C19.0322 28.693 19.309 28.5212 19.5062 28.1776C19.7035 27.8341 19.8021 27.3441 19.8021 26.7079C19.8021 26.2848 19.7568 25.9245 19.6661 25.627C19.577 25.3296 19.4482 25.1029 19.2796 24.947C19.1126 24.7911 18.9113 24.7132 18.6759 24.7132C18.3228 24.7132 18.0468 24.8874 17.848 25.2357C17.6492 25.5825 17.5497 26.0732 17.5497 26.7079C17.5497 27.131 17.5943 27.4905 17.6833 27.7863C17.7724 28.0822 17.9005 28.3073 18.0675 28.4616C18.2361 28.6159 18.4389 28.693 18.6759 28.693Z" fill="black"/>
<path d="M22.6987 2.29565H25.0071" stroke="white" stroke-width="0.559913"/>
<path d="M15.6765 -0.172035V4.71448H15.0848V0.448323H15.0561L13.8631 1.24047V0.639203L15.0848 -0.172035H15.6765ZM18.6757 4.78129C18.3162 4.78129 18.01 4.68346 17.7571 4.48781C17.5042 4.29057 17.3109 4.00504 17.1773 3.63124C17.0437 3.25584 16.9768 2.8025 16.9768 2.27122C16.9768 1.74312 17.0437 1.29217 17.1773 0.918364C17.3125 0.542968 17.5065 0.256649 17.7595 0.0594064C18.014 -0.139426 18.3194 -0.238842 18.6757 -0.238842C19.032 -0.238842 19.3366 -0.139426 19.5895 0.0594064C19.844 0.256649 20.0381 0.542968 20.1717 0.918364C20.3069 1.29217 20.3745 1.74312 20.3745 2.27122C20.3745 2.8025 20.3077 3.25584 20.1741 3.63124C20.0405 4.00504 19.8472 4.29057 19.5943 4.48781C19.3414 4.68346 19.0352 4.78129 18.6757 4.78129ZM18.6757 4.25637C19.032 4.25637 19.3088 4.08458 19.506 3.74099C19.7032 3.39741 19.8019 2.90749 19.8019 2.27122C19.8019 1.84811 19.7565 1.48782 19.6659 1.19037C19.5768 0.892913 19.4479 0.666244 19.2793 0.510359C19.1123 0.354474 18.9111 0.276532 18.6757 0.276532C18.3225 0.276532 18.0466 0.450709 17.8477 0.799064C17.6489 1.14583 17.5495 1.63655 17.5495 2.27122C17.5495 2.69434 17.594 3.05383 17.6831 3.34969C17.7722 3.64555 17.9002 3.87063 18.0672 4.02493C18.2359 4.17922 18.4387 4.25637 18.6757 4.25637ZM14.4763 12.7813C14.1168 12.7813 13.8106 12.6835 13.5577 12.4878C13.3048 12.2906 13.1115 12.005 12.9779 11.6312C12.8443 11.2558 12.7775 10.8025 12.7775 10.2712C12.7775 9.74312 12.8443 9.29217 12.9779 8.91836C13.1131 8.54297 13.3072 8.25665 13.5601 8.05941C13.8146 7.86057 14.12 7.76116 14.4763 7.76116C14.8326 7.76116 15.1372 7.86057 15.3902 8.05941C15.6447 8.25665 15.8387 8.54297 15.9723 8.91836C16.1076 9.29217 16.1752 9.74312 16.1752 10.2712C16.1752 10.8025 16.1083 11.2558 15.9747 11.6312C15.8411 12.005 15.6479 12.2906 15.3949 12.4878C15.142 12.6835 14.8358 12.7813 14.4763 12.7813ZM14.4763 12.2564C14.8326 12.2564 15.1094 12.0846 15.3067 11.741C15.5039 11.3974 15.6025 10.9075 15.6025 10.2712C15.6025 9.84811 15.5572 9.48782 15.4665 9.19037C15.3774 8.89291 15.2486 8.66624 15.08 8.51036C14.913 8.35447 14.7117 8.27653 14.4763 8.27653C14.1232 8.27653 13.8472 8.45071 13.6484 8.79906C13.4496 9.14583 13.3501 9.63655 13.3501 10.2712C13.3501 10.6943 13.3947 11.0538 13.4838 11.3497C13.5728 11.6456 13.7009 11.8706 13.8679 12.0249C14.0365 12.1792 14.2393 12.2564 14.4763 12.2564ZM18.6757 12.7813C18.3162 12.7813 18.01 12.6835 17.7571 12.4878C17.5042 12.2906 17.3109 12.005 17.1773 11.6312C17.0437 11.2558 16.9768 10.8025 16.9768 10.2712C16.9768 9.74312 17.0437 9.29217 17.1773 8.91836C17.3125 8.54297 17.5065 8.25665 17.7595 8.05941C18.014 7.86057 18.3194 7.76116 18.6757 7.76116C19.032 7.76116 19.3366 7.86057 19.5895 8.05941C19.844 8.25665 20.0381 8.54297 20.1717 8.91836C20.3069 9.29217 20.3745 9.74312 20.3745 10.2712C20.3745 10.8025 20.3077 11.2558 20.1741 11.6312C20.0405 12.005 19.8472 12.2906 19.5943 12.4878C19.3414 12.6835 19.0352 12.7813 18.6757 12.7813ZM18.6757 12.2564C19.032 12.2564 19.3088 12.0846 19.506 11.741C19.7032 11.3974 19.8019 10.9075 19.8019 10.2712C19.8019 9.84811 19.7565 9.48782 19.6659 9.19037C19.5768 8.89291 19.4479 8.66624 19.2793 8.51036C19.1123 8.35447 18.9111 8.27653 18.6757 8.27653C18.3225 8.27653 18.0466 8.45071 17.8477 8.79906C17.6489 9.14583 17.5495 9.63655 17.5495 10.2712C17.5495 10.6943 17.594 11.0538 17.6831 11.3497C17.7722 11.6456 17.9002 11.8706 18.0672 12.0249C18.2359 12.1792 18.4387 12.2564 18.6757 12.2564Z" fill="black"/>
<path d="M25.0068 75.7561H255.076" stroke="black" stroke-width="0.559913"/>
<path d="M25.0068 57.3909H255.076" stroke="black" stroke-width="0.559913"/>
<path d="M25.0068 39.0259H255.076" stroke="black" stroke-width="0.559913"/>
<path d="M25.0068 20.6606H255.076" stroke="black" stroke-width="0.559913"/>
<path d="M25.0068 2.29553H255.076" stroke="black" stroke-width="0.559913"/>
<path d="M25.0068 2.29553V75.7561" stroke="black" stroke-width="0.559913"/>
<path d="M53.7651 2.29553V75.7561" stroke="black" stroke-width="0.559913"/>
<path d="M82.5244 2.29553V75.7561" stroke="black" stroke-width="0.559913"/>
<path d="M111.283 2.29553V75.7561" stroke="black" stroke-width="0.559913"/>
<path d="M140.041 2.29553V75.7561" stroke="black" stroke-width="0.559913"/>
<path d="M168.8 2.29553V75.7561" stroke="black" stroke-width="0.559913"/>
<path d="M197.559 2.29553V75.7561" stroke="black" stroke-width="0.559913"/>
<path d="M226.317 2.29553V75.7561" stroke="black" stroke-width="0.559913"/>
<path d="M255.076 2.29553V75.7561" stroke="black" stroke-width="0.559913"/>
<path d="M25.0073 64.884L53.7659 8.31939L82.5245 27.4191L111.283 20.4404L140.042 5.6748L168.8 40.1278L197.559 64.9575L226.318 60.3295L255.076 48.2819" stroke="#3CBE23" stroke-width="0.559913"/>
<path d="M25.0067 66.2614C25.6442 66.2614 26.1609 65.6447 26.1609 64.884C26.1609 64.1233 25.6442 63.5066 25.0067 63.5066C24.3693 63.5066 23.8525 64.1233 23.8525 64.884C23.8525 65.6447 24.3693 66.2614 25.0067 66.2614Z" fill="white" stroke="#3CBE23" stroke-width="0.559913"/>
<path d="M53.765 9.69667C54.4025 9.69667 54.9192 9.07999 54.9192 8.31928C54.9192 7.55857 54.4025 6.94189 53.765 6.94189C53.1276 6.94189 52.6108 7.55857 52.6108 8.31928C52.6108 9.07999 53.1276 9.69667 53.765 9.69667Z" fill="white" stroke="#3CBE23" stroke-width="0.559913"/>
<path d="M82.5243 28.7965C83.1618 28.7965 83.6785 28.1798 83.6785 27.4191C83.6785 26.6584 83.1618 26.0417 82.5243 26.0417C81.8869 26.0417 81.3701 26.6584 81.3701 27.4191C81.3701 28.1798 81.8869 28.7965 82.5243 28.7965Z" fill="white" stroke="#3CBE23" stroke-width="0.559913"/>
<path d="M111.283 21.8178C111.92 21.8178 112.437 21.2011 112.437 20.4404C112.437 19.6797 111.92 19.063 111.283 19.063C110.645 19.063 110.128 19.6797 110.128 20.4404C110.128 21.2011 110.645 21.8178 111.283 21.8178Z" fill="white" stroke="#3CBE23" stroke-width="0.559913"/>
<path d="M140.041 7.05213C140.678 7.05213 141.195 6.43546 141.195 5.67475C141.195 4.91404 140.678 4.29736 140.041 4.29736C139.403 4.29736 138.887 4.91404 138.887 5.67475C138.887 6.43546 139.403 7.05213 140.041 7.05213Z" fill="white" stroke="#3CBE23" stroke-width="0.559913"/>
<path d="M168.8 41.5053C169.437 41.5053 169.954 40.8886 169.954 40.1279C169.954 39.3672 169.437 38.7505 168.8 38.7505C168.162 38.7505 167.646 39.3672 167.646 40.1279C167.646 40.8886 168.162 41.5053 168.8 41.5053Z" fill="white" stroke="#3CBE23" stroke-width="0.559913"/>
<path d="M197.558 66.3348C198.196 66.3348 198.713 65.7182 198.713 64.9575C198.713 64.1968 198.196 63.5801 197.558 63.5801C196.921 63.5801 196.404 64.1968 196.404 64.9575C196.404 65.7182 196.921 66.3348 197.558 66.3348Z" fill="white" stroke="#3CBE23" stroke-width="0.559913"/>
<path d="M226.317 61.7067C226.954 61.7067 227.471 61.09 227.471 60.3293C227.471 59.5686 226.954 58.9519 226.317 58.9519C225.679 58.9519 225.163 59.5686 225.163 60.3293C225.163 61.09 225.679 61.7067 226.317 61.7067Z" fill="white" stroke="#3CBE23" stroke-width="0.559913"/>
<path d="M255.076 49.6593C255.713 49.6593 256.23 49.0426 256.23 48.2819C256.23 47.5212 255.713 46.9045 255.076 46.9045C254.438 46.9045 253.921 47.5212 253.921 48.2819C253.921 49.0426 254.438 49.6593 255.076 49.6593Z" fill="white" stroke="#3CBE23" stroke-width="0.559913"/>
<path d="M25.0073 34.9121L53.7659 13.9024L82.5245 64.2229L111.283 39.9809L140.042 61.7252L168.8 74.6543L197.559 38.6586L226.318 4.35254L255.076 24.1869" stroke="#6100FF" stroke-width="0.559913"/>
<path d="M25.0067 36.2897C25.6442 36.2897 26.1609 35.673 26.1609 34.9123C26.1609 34.1516 25.6442 33.5349 25.0067 33.5349C24.3693 33.5349 23.8525 34.1516 23.8525 34.9123C23.8525 35.673 24.3693 36.2897 25.0067 36.2897Z" fill="white" stroke="#6100FF" stroke-width="0.559913"/>
<path d="M53.765 15.2799C54.4025 15.2799 54.9192 14.6632 54.9192 13.9025C54.9192 13.1418 54.4025 12.5251 53.765 12.5251C53.1276 12.5251 52.6108 13.1418 52.6108 13.9025C52.6108 14.6632 53.1276 15.2799 53.765 15.2799Z" fill="white" stroke="#6100FF" stroke-width="0.559913"/>
<path d="M82.5243 65.6002C83.1618 65.6002 83.6785 64.9836 83.6785 64.2228C83.6785 63.4621 83.1618 62.8455 82.5243 62.8455C81.8869 62.8455 81.3701 63.4621 81.3701 64.2228C81.3701 64.9836 81.8869 65.6002 82.5243 65.6002Z" fill="white" stroke="#6100FF" stroke-width="0.559913"/>
<path d="M111.283 41.3583C111.92 41.3583 112.437 40.7416 112.437 39.9809C112.437 39.2202 111.92 38.6035 111.283 38.6035C110.645 38.6035 110.128 39.2202 110.128 39.9809C110.128 40.7416 110.645 41.3583 111.283 41.3583Z" fill="white" stroke="#6100FF" stroke-width="0.559913"/>
<path d="M140.041 63.1027C140.678 63.1027 141.195 62.486 141.195 61.7253C141.195 60.9646 140.678 60.3479 140.041 60.3479C139.403 60.3479 138.887 60.9646 138.887 61.7253C138.887 62.486 139.403 63.1027 140.041 63.1027Z" fill="white" stroke="#6100FF" stroke-width="0.559913"/>
<path d="M168.8 76.0319C169.437 76.0319 169.954 75.4152 169.954 74.6545C169.954 73.8938 169.437 73.2771 168.8 73.2771C168.162 73.2771 167.646 73.8938 167.646 74.6545C167.646 75.4152 168.162 76.0319 168.8 76.0319Z" fill="white" stroke="#6100FF" stroke-width="0.559913"/>
<path d="M197.558 40.036C198.196 40.036 198.713 39.4193 198.713 38.6586C198.713 37.8979 198.196 37.2812 197.558 37.2812C196.921 37.2812 196.404 37.8979 196.404 38.6586C196.404 39.4193 196.921 40.036 197.558 40.036Z" fill="white" stroke="#6100FF" stroke-width="0.559913"/>
<path d="M226.317 5.72999C226.954 5.72999 227.471 5.11331 227.471 4.35261C227.471 3.5919 226.954 2.97522 226.317 2.97522C225.679 2.97522 225.163 3.5919 225.163 4.35261C225.163 5.11331 225.679 5.72999 226.317 5.72999Z" fill="white" stroke="#6100FF" stroke-width="0.559913"/>
<path d="M255.076 25.5643C255.713 25.5643 256.23 24.9477 256.23 24.187C256.23 23.4262 255.713 22.8096 255.076 22.8096C254.438 22.8096 253.921 23.4262 253.921 24.187C253.921 24.9477 254.438 25.5643 255.076 25.5643Z" fill="white" stroke="#6100FF" stroke-width="0.559913"/>
<path d="M25.0073 68.6304L53.7659 53.6444L82.5245 33.7366L111.283 66.9408L140.042 58.2725L168.8 66.647L197.559 7.43774L226.318 35.7201L255.076 40.7154" stroke="#000D84" stroke-width="0.559913"/>
<path d="M25.0067 70.0079C25.6442 70.0079 26.1609 69.3913 26.1609 68.6306C26.1609 67.8699 25.6442 67.2532 25.0067 67.2532C24.3693 67.2532 23.8525 67.8699 23.8525 68.6306C23.8525 69.3913 24.3693 70.0079 25.0067 70.0079Z" fill="white" stroke="#000D84" stroke-width="0.559913"/>
<path d="M53.765 55.0221C54.4025 55.0221 54.9192 54.4054 54.9192 53.6447C54.9192 52.884 54.4025 52.2673 53.765 52.2673C53.1276 52.2673 52.6108 52.884 52.6108 53.6447C52.6108 54.4054 53.1276 55.0221 53.765 55.0221Z" fill="white" stroke="#000D84" stroke-width="0.559913"/>
<path d="M82.5243 35.1141C83.1618 35.1141 83.6785 34.4975 83.6785 33.7368C83.6785 32.9761 83.1618 32.3594 82.5243 32.3594C81.8869 32.3594 81.3701 32.9761 81.3701 33.7368C81.3701 34.4975 81.8869 35.1141 82.5243 35.1141Z" fill="white" stroke="#000D84" stroke-width="0.559913"/>
<path d="M111.283 68.3182C111.92 68.3182 112.437 67.7016 112.437 66.9409C112.437 66.1802 111.92 65.5635 111.283 65.5635C110.645 65.5635 110.128 66.1802 110.128 66.9409C110.128 67.7016 110.645 68.3182 111.283 68.3182Z" fill="white" stroke="#000D84" stroke-width="0.559913"/>
<path d="M140.041 59.65C140.678 59.65 141.195 59.0334 141.195 58.2726C141.195 57.5119 140.678 56.8953 140.041 56.8953C139.403 56.8953 138.887 57.5119 138.887 58.2726C138.887 59.0334 139.403 59.65 140.041 59.65Z" fill="white" stroke="#000D84" stroke-width="0.559913"/>
<path d="M168.8 68.0245C169.437 68.0245 169.954 67.4079 169.954 66.6472C169.954 65.8865 169.437 65.2698 168.8 65.2698C168.162 65.2698 167.646 65.8865 167.646 66.6472C167.646 67.4079 168.162 68.0245 168.8 68.0245Z" fill="white" stroke="#000D84" stroke-width="0.559913"/>
<path d="M197.558 8.81532C198.196 8.81532 198.713 8.19864 198.713 7.43793C198.713 6.67722 198.196 6.06055 197.558 6.06055C196.921 6.06055 196.404 6.67722 196.404 7.43793C196.404 8.19864 196.921 8.81532 197.558 8.81532Z" fill="white" stroke="#000D84" stroke-width="0.559913"/>
<path d="M226.317 37.0975C226.954 37.0975 227.471 36.4809 227.471 35.7202C227.471 34.9594 226.954 34.3428 226.317 34.3428C225.679 34.3428 225.163 34.9594 225.163 35.7202C225.163 36.4809 225.679 37.0975 226.317 37.0975Z" fill="white" stroke="#000D84" stroke-width="0.559913"/>
<path d="M255.076 42.0929C255.713 42.0929 256.23 41.4762 256.23 40.7155C256.23 39.9548 255.713 39.3381 255.076 39.3381C254.438 39.3381 253.921 39.9548 253.921 40.7155C253.921 41.4762 254.438 42.0929 255.076 42.0929Z" fill="white" stroke="#000D84" stroke-width="0.559913"/>
<path d="M25.0073 19.4855L53.7659 62.6803L82.5245 66.133L111.283 59.5215L140.042 69.3653L168.8 73.9933L197.559 46.0783L226.318 17.2083L255.076 34.1042" stroke="#00E9FF" stroke-width="0.559913"/>
<path d="M25.0067 20.8629C25.6442 20.8629 26.1609 20.2462 26.1609 19.4855C26.1609 18.7248 25.6442 18.1082 25.0067 18.1082C24.3693 18.1082 23.8525 18.7248 23.8525 19.4855C23.8525 20.2462 24.3693 20.8629 25.0067 20.8629Z" fill="white" stroke="#00E9FF" stroke-width="0.559913"/>
<path d="M53.765 64.0577C54.4025 64.0577 54.9192 63.4411 54.9192 62.6804C54.9192 61.9197 54.4025 61.303 53.765 61.303C53.1276 61.303 52.6108 61.9197 52.6108 62.6804C52.6108 63.4411 53.1276 64.0577 53.765 64.0577Z" fill="white" stroke="#00E9FF" stroke-width="0.559913"/>
<path d="M82.5243 67.5104C83.1618 67.5104 83.6785 66.8937 83.6785 66.133C83.6785 65.3723 83.1618 64.7556 82.5243 64.7556C81.8869 64.7556 81.3701 65.3723 81.3701 66.133C81.3701 66.8937 81.8869 67.5104 82.5243 67.5104Z" fill="white" stroke="#00E9FF" stroke-width="0.559913"/>
<path d="M111.283 60.8988C111.92 60.8988 112.437 60.2821 112.437 59.5214C112.437 58.7607 111.92 58.144 111.283 58.144C110.645 58.144 110.128 58.7607 110.128 59.5214C110.128 60.2821 110.645 60.8988 111.283 60.8988Z" fill="white" stroke="#00E9FF" stroke-width="0.559913"/>
<path d="M140.041 70.7426C140.678 70.7426 141.195 70.1259 141.195 69.3652C141.195 68.6045 140.678 67.9878 140.041 67.9878C139.403 67.9878 138.887 68.6045 138.887 69.3652C138.887 70.1259 139.403 70.7426 140.041 70.7426Z" fill="white" stroke="#00E9FF" stroke-width="0.559913"/>
<path d="M168.8 75.3705C169.437 75.3705 169.954 74.7538 169.954 73.9931C169.954 73.2324 169.437 72.6157 168.8 72.6157C168.162 72.6157 167.646 73.2324 167.646 73.9931C167.646 74.7538 168.162 75.3705 168.8 75.3705Z" fill="white" stroke="#00E9FF" stroke-width="0.559913"/>
<path d="M197.558 47.4557C198.196 47.4557 198.713 46.839 198.713 46.0783C198.713 45.3176 198.196 44.7009 197.558 44.7009C196.921 44.7009 196.404 45.3176 196.404 46.0783C196.404 46.839 196.921 47.4557 197.558 47.4557Z" fill="white" stroke="#00E9FF" stroke-width="0.559913"/>
<path d="M226.317 18.5856C226.954 18.5856 227.471 17.9689 227.471 17.2082C227.471 16.4475 226.954 15.8308 226.317 15.8308C225.679 15.8308 225.163 16.4475 225.163 17.2082C225.163 17.9689 225.679 18.5856 226.317 18.5856Z" fill="white" stroke="#00E9FF" stroke-width="0.559913"/>
<path d="M255.076 35.4816C255.713 35.4816 256.23 34.8649 256.23 34.1042C256.23 33.3435 255.713 32.7268 255.076 32.7268C254.438 32.7268 253.921 33.3435 253.921 34.1042C253.921 34.8649 254.438 35.4816 255.076 35.4816Z" fill="white" stroke="#00E9FF" stroke-width="0.559913"/>
</g>
<defs>
<clipPath id="clip0_198_137">
<rect width="257" height="91.8257" fill="white"/>
</clipPath>
</defs>
</svg>
